%TF.GenerationSoftware,KiCad,Pcbnew,8.0.1*%
%TF.CreationDate,2024-03-28T03:14:46-07:00*%
%TF.ProjectId,FRED_R2D,46524544-5f52-4324-942e-6b696361645f,rev?*%
%TF.SameCoordinates,Original*%
%TF.FileFunction,Component,L1,Top*%
%TF.FilePolarity,Positive*%
%FSLAX46Y46*%
G04 Gerber Fmt 4.6, Leading zero omitted, Abs format (unit mm)*
G04 Created by KiCad (PCBNEW 8.0.1) date 2024-03-28 03:14:46*
%MOMM*%
%LPD*%
G01*
G04 APERTURE LIST*
%TA.AperFunction,ComponentMain*%
%ADD10C,0.300000*%
%TD*%
%TA.AperFunction,ComponentOutline,Courtyard*%
%ADD11C,0.100000*%
%TD*%
%TA.AperFunction,ComponentPin*%
%ADD12P,0.360000X4X0.000000*%
%TD*%
%TA.AperFunction,ComponentPin*%
%ADD13C,0.100000*%
%TD*%
%TA.AperFunction,ComponentOutline,Footprint*%
%ADD14C,0.100000*%
%TD*%
G04 APERTURE END LIST*
D10*
%TO.C,R2*%
%TO.CFtp,R_0603_1608Metric*%
%TO.CVal,3R3*%
%TO.CLbN,Resistor_SMD_AKL*%
%TO.CMnt,SMD*%
%TO.CRot,0*%
X130075000Y-121250000D03*
D11*
X131554999Y-120520001D02*
X131554999Y-121979999D01*
X128595001Y-121979999D01*
X128595001Y-120520001D01*
X131554999Y-120520001D01*
D12*
%TO.P,R2,1*%
X129250000Y-121250000D03*
D13*
%TO.P,R2,2*%
X130900000Y-121250000D03*
%TD*%
D10*
%TO.C,U4*%
%TO.CFtp,SOT-23-5*%
%TO.CVal,74AHC1G86*%
%TO.CLbN,Package_TO_SOT_SMD*%
%TO.CMnt,SMD*%
%TO.CRot,0*%
X147750000Y-116000000D03*
D11*
X149799999Y-114300001D02*
X149799999Y-117699999D01*
X145700001Y-117699999D01*
X145700001Y-114300001D01*
X149799999Y-114300001D01*
D12*
%TO.P,U4,1*%
X146612500Y-115050000D03*
D13*
%TO.P,U4,2*%
X146612500Y-116000000D03*
%TO.P,U4,3,GND*%
X146612500Y-116950000D03*
%TO.P,U4,4*%
X148887500Y-116950000D03*
%TO.P,U4,5,VCC*%
X148887500Y-115050000D03*
%TD*%
D10*
%TO.C,C5*%
%TO.CFtp,C_0603_1608Metric*%
%TO.CVal,10uF*%
%TO.CLbN,Capacitor_SMD_AKL*%
%TO.CMnt,SMD*%
%TO.CRot,-90*%
X136250000Y-95000000D03*
D11*
X136979999Y-93520001D02*
X136979999Y-96479999D01*
X135520001Y-96479999D01*
X135520001Y-93520001D01*
X136979999Y-93520001D01*
D12*
%TO.P,C5,1*%
X136250000Y-94225000D03*
D13*
%TO.P,C5,2*%
X136250000Y-95775000D03*
%TD*%
D10*
%TO.C,J2*%
%TO.CFtp,RJ45_Amphenol_RJHSE538X*%
%TO.CVal,RJ45_LED_Shielded*%
%TO.CLbN,Connector_RJ*%
%TO.CMnt,TH*%
%TO.CRot,-90*%
X168460000Y-90550000D03*
D11*
X176959999Y-84330001D02*
X176959999Y-103889999D01*
X160210001Y-103889999D01*
X160210001Y-84330001D01*
X176959999Y-84330001D01*
D12*
%TO.P,J2,1*%
X168460000Y-90550000D03*
D13*
%TO.P,J2,SH*%
X167570000Y-102240000D03*
X167570000Y-85980000D03*
%TO.P,J2,12*%
X161860000Y-100970000D03*
%TO.P,J2,11*%
X161860000Y-98680000D03*
%TO.P,J2,10*%
X161860000Y-89540000D03*
%TO.P,J2,9*%
X161860000Y-87250000D03*
%TO.P,J2,8*%
X166680000Y-97662000D03*
%TO.P,J2,7*%
X168460000Y-96646000D03*
%TO.P,J2,6*%
X166680000Y-95630000D03*
%TO.P,J2,5*%
X168460000Y-94614000D03*
%TO.P,J2,4*%
X166680000Y-93598000D03*
%TO.P,J2,3*%
X168460000Y-92582000D03*
%TO.P,J2,2*%
X166680000Y-91566000D03*
%TO.P,J2,*%
X171000000Y-100460000D03*
X171000000Y-87760000D03*
%TD*%
D10*
%TO.C,D4*%
%TO.CFtp,D_SOD-123*%
%TO.CVal,1N4148W*%
%TO.CLbN,Diode_SMD_AKL*%
%TO.CMnt,SMD*%
%TO.CRot,0*%
X134225000Y-109150000D03*
D11*
X136574999Y-108000001D02*
X136574999Y-110299999D01*
X131875001Y-110299999D01*
X131875001Y-108000001D01*
X136574999Y-108000001D01*
D12*
%TO.P,D4,1,K*%
X132575000Y-109150000D03*
D13*
%TO.P,D4,2,A*%
X135875000Y-109150000D03*
%TD*%
D10*
%TO.C,Q1*%
%TO.CFtp,SOT-23*%
%TO.CVal,MMBT5551*%
%TO.CLbN,Package_TO_SOT_SMD_AKL*%
%TO.CMnt,SMD*%
%TO.CRot,180*%
X126575000Y-116450000D03*
D11*
X128274999Y-114700001D02*
X128274999Y-118199999D01*
X124875001Y-118199999D01*
X124875001Y-114700001D01*
X128274999Y-114700001D01*
D12*
%TO.P,Q1,1,B*%
X127575000Y-117400000D03*
D13*
%TO.P,Q1,2,E*%
X127575000Y-115500000D03*
%TO.P,Q1,3,C*%
X125575000Y-116450000D03*
%TD*%
D10*
%TO.C,C16*%
%TO.CFtp,C_0603_1608Metric*%
%TO.CVal,100nF*%
%TO.CLbN,Capacitor_SMD_AKL*%
%TO.CMnt,SMD*%
%TO.CRot,180*%
X147750000Y-113000000D03*
D11*
X149229999Y-112270001D02*
X149229999Y-113729999D01*
X146270001Y-113729999D01*
X146270001Y-112270001D01*
X149229999Y-112270001D01*
D12*
%TO.P,C16,1*%
X148525000Y-113000000D03*
D13*
%TO.P,C16,2*%
X146975000Y-113000000D03*
%TD*%
D10*
%TO.C,D5*%
%TO.CFtp,LED_0603_1608Metric*%
%TO.CVal,LED*%
%TO.CLbN,LED_SMD*%
%TO.CMnt,SMD*%
%TO.CRot,180*%
X134887500Y-89200000D03*
D11*
X136367499Y-88470001D02*
X136367499Y-89929999D01*
X133407501Y-89929999D01*
X133407501Y-88470001D01*
X136367499Y-88470001D01*
D12*
%TO.P,D5,1,K*%
X135675000Y-89200000D03*
D13*
%TO.P,D5,2,A*%
X134100000Y-89200000D03*
%TD*%
D10*
%TO.C,C11*%
%TO.CFtp,C_0603_1608Metric*%
%TO.CVal,10uF*%
%TO.CLbN,Capacitor_SMD_AKL*%
%TO.CMnt,SMD*%
%TO.CRot,0*%
X143025000Y-108250000D03*
D11*
X144504999Y-107520001D02*
X144504999Y-108979999D01*
X141545001Y-108979999D01*
X141545001Y-107520001D01*
X144504999Y-107520001D01*
D12*
%TO.P,C11,1*%
X142250000Y-108250000D03*
D13*
%TO.P,C11,2*%
X143800000Y-108250000D03*
%TD*%
D10*
%TO.C,R10*%
%TO.CFtp,R_0603_1608Metric*%
%TO.CVal,2K2*%
%TO.CLbN,Resistor_SMD_AKL*%
%TO.CMnt,SMD*%
%TO.CRot,0*%
X130075000Y-112000000D03*
D11*
X131554999Y-111270001D02*
X131554999Y-112729999D01*
X128595001Y-112729999D01*
X128595001Y-111270001D01*
X131554999Y-111270001D01*
D12*
%TO.P,R10,1*%
X129250000Y-112000000D03*
D13*
%TO.P,R10,2*%
X130900000Y-112000000D03*
%TD*%
D10*
%TO.C,C14*%
%TO.CFtp,C_0603_1608Metric*%
%TO.CVal,10uF*%
%TO.CLbN,Capacitor_SMD_AKL*%
%TO.CMnt,SMD*%
%TO.CRot,180*%
X156000000Y-108250000D03*
D11*
X157479999Y-107520001D02*
X157479999Y-108979999D01*
X154520001Y-108979999D01*
X154520001Y-107520001D01*
X157479999Y-107520001D01*
D12*
%TO.P,C14,1*%
X156775000Y-108250000D03*
D13*
%TO.P,C14,2*%
X155225000Y-108250000D03*
%TD*%
D10*
%TO.C,C8*%
%TO.CFtp,C_0603_1608Metric*%
%TO.CVal,10nF*%
%TO.CLbN,Capacitor_SMD_AKL*%
%TO.CMnt,SMD*%
%TO.CRot,0*%
X142500000Y-95250000D03*
D11*
X143979999Y-94520001D02*
X143979999Y-95979999D01*
X141020001Y-95979999D01*
X141020001Y-94520001D01*
X143979999Y-94520001D01*
D12*
%TO.P,C8,1*%
X141725000Y-95250000D03*
D13*
%TO.P,C8,2*%
X143275000Y-95250000D03*
%TD*%
D10*
%TO.C,R14*%
%TO.CFtp,R_0603_1608Metric*%
%TO.CVal,15K4*%
%TO.CLbN,Resistor_SMD_AKL*%
%TO.CMnt,SMD*%
%TO.CRot,-90*%
X139920000Y-109650000D03*
D11*
X140649999Y-108170001D02*
X140649999Y-111129999D01*
X139190001Y-111129999D01*
X139190001Y-108170001D01*
X140649999Y-108170001D01*
D12*
%TO.P,R14,1*%
X139920000Y-108825000D03*
D13*
%TO.P,R14,2*%
X139920000Y-110475000D03*
%TD*%
D10*
%TO.C,S2*%
%TO.CFtp,SW_TS-1187A-B-A-B*%
%TO.CVal,TS-1187A-B-A-B*%
%TO.CLbN,TS-1187A-B-A-B*%
%TO.CMnt,SMD*%
%TO.CRot,180*%
X171250000Y-118250000D03*
D11*
X174049999Y-115450001D02*
X174049999Y-115750001D01*
X174999999Y-115750001D01*
X174999999Y-116999999D01*
X174049999Y-116999999D01*
X174049999Y-119500001D01*
X174999999Y-119500001D01*
X174999999Y-120749999D01*
X174049999Y-120749999D01*
X174049999Y-121049999D01*
X168450001Y-121049999D01*
X168450001Y-120749999D01*
X167500001Y-120749999D01*
X167500001Y-119500001D01*
X168450001Y-119500001D01*
X168450001Y-116999999D01*
X167500001Y-116999999D01*
X167500001Y-115750001D01*
X168450001Y-115750001D01*
X168450001Y-115450001D01*
X174049999Y-115450001D01*
D13*
%TO.P,S2,D*%
X168250000Y-116375000D03*
%TO.P,S2,C*%
X174250000Y-116375000D03*
%TO.P,S2,B*%
X168250000Y-120125000D03*
%TO.P,S2,A*%
X174250000Y-120125000D03*
%TD*%
D10*
%TO.C,J4*%
%TO.CFtp,PinSocket_1x02_P2.54mm_Vertical*%
%TO.CVal,Conn_01x02_Pin*%
%TO.CLbN,Connector_PinSocket_2.54mm*%
%TO.CMnt,TH*%
%TO.CRot,-90*%
X135000000Y-86025000D03*
D11*
X136799999Y-84225001D02*
X136799999Y-87774999D01*
X130700001Y-87774999D01*
X130700001Y-84225001D01*
X136799999Y-84225001D01*
D12*
%TO.P,J4,1,Pin_1*%
X135000000Y-86025000D03*
D13*
%TO.P,J4,2,Pin_2*%
X132460000Y-86025000D03*
%TD*%
D10*
%TO.C,R8*%
%TO.CFtp,R_0603_1608Metric*%
%TO.CVal,3R3*%
%TO.CLbN,Resistor_SMD_AKL*%
%TO.CMnt,SMD*%
%TO.CRot,0*%
X130075000Y-109000000D03*
D11*
X131554999Y-108270001D02*
X131554999Y-109729999D01*
X128595001Y-109729999D01*
X128595001Y-108270001D01*
X131554999Y-108270001D01*
D12*
%TO.P,R8,1*%
X129250000Y-109000000D03*
D13*
%TO.P,R8,2*%
X130900000Y-109000000D03*
%TD*%
D10*
%TO.C,R12*%
%TO.CFtp,R_0603_1608Metric*%
%TO.CVal,4R7*%
%TO.CLbN,Resistor_SMD_AKL*%
%TO.CMnt,SMD*%
%TO.CRot,-90*%
X123825000Y-112675000D03*
D11*
X124554999Y-111195001D02*
X124554999Y-114154999D01*
X123095001Y-114154999D01*
X123095001Y-111195001D01*
X124554999Y-111195001D01*
D12*
%TO.P,R12,1*%
X123825000Y-111850000D03*
D13*
%TO.P,R12,2*%
X123825000Y-113500000D03*
%TD*%
D10*
%TO.C,C2*%
%TO.CFtp,C_0603_1608Metric*%
%TO.CVal,10nF*%
%TO.CLbN,Capacitor_SMD_AKL*%
%TO.CMnt,SMD*%
%TO.CRot,-90*%
X138420000Y-116800000D03*
D11*
X139149999Y-115320001D02*
X139149999Y-118279999D01*
X137690001Y-118279999D01*
X137690001Y-115320001D01*
X139149999Y-115320001D01*
D12*
%TO.P,C2,1*%
X138420000Y-116025000D03*
D13*
%TO.P,C2,2*%
X138420000Y-117575000D03*
%TD*%
D10*
%TO.C,C21*%
%TO.CFtp,C_0603_1608Metric*%
%TO.CVal,100nF*%
%TO.CLbN,Capacitor_SMD_AKL*%
%TO.CMnt,SMD*%
%TO.CRot,0*%
X124500000Y-91500000D03*
D11*
X125979999Y-90770001D02*
X125979999Y-92229999D01*
X123020001Y-92229999D01*
X123020001Y-90770001D01*
X125979999Y-90770001D01*
D12*
%TO.P,C21,1*%
X123725000Y-91500000D03*
D13*
%TO.P,C21,2*%
X125275000Y-91500000D03*
%TD*%
D10*
%TO.C,R18*%
%TO.CFtp,R_0603_1608Metric*%
%TO.CVal,3R3*%
%TO.CLbN,Resistor_SMD_AKL*%
%TO.CMnt,SMD*%
%TO.CRot,0*%
X124425000Y-102475000D03*
D11*
X125904999Y-101745001D02*
X125904999Y-103204999D01*
X122945001Y-103204999D01*
X122945001Y-101745001D01*
X125904999Y-101745001D01*
D12*
%TO.P,R18,1*%
X123600000Y-102475000D03*
D13*
%TO.P,R18,2*%
X125250000Y-102475000D03*
%TD*%
D10*
%TO.C,R19*%
%TO.CFtp,R_0603_1608Metric*%
%TO.CVal,3R3*%
%TO.CLbN,Resistor_SMD_AKL*%
%TO.CMnt,SMD*%
%TO.CRot,0*%
X124425000Y-104235000D03*
D11*
X125904999Y-103505001D02*
X125904999Y-104964999D01*
X122945001Y-104964999D01*
X122945001Y-103505001D01*
X125904999Y-103505001D01*
D12*
%TO.P,R19,1*%
X123600000Y-104235000D03*
D13*
%TO.P,R19,2*%
X125250000Y-104235000D03*
%TD*%
D10*
%TO.C,R23*%
%TO.CFtp,R_0603_1608Metric*%
%TO.CVal,10k*%
%TO.CLbN,Resistor_SMD_AKL*%
%TO.CMnt,SMD*%
%TO.CRot,90*%
X144500000Y-114325000D03*
D11*
X145229999Y-112845001D02*
X145229999Y-115804999D01*
X143770001Y-115804999D01*
X143770001Y-112845001D01*
X145229999Y-112845001D01*
D12*
%TO.P,R23,1*%
X144500000Y-115150000D03*
D13*
%TO.P,R23,2*%
X144500000Y-113500000D03*
%TD*%
D10*
%TO.C,Q4*%
%TO.CFtp,SOT-23*%
%TO.CVal,MMBT5551*%
%TO.CLbN,Package_TO_SOT_SMD_AKL*%
%TO.CMnt,SMD*%
%TO.CRot,180*%
X126575000Y-112750000D03*
D11*
X128274999Y-111000001D02*
X128274999Y-114499999D01*
X124875001Y-114499999D01*
X124875001Y-111000001D01*
X128274999Y-111000001D01*
D12*
%TO.P,Q4,1,B*%
X127575000Y-113700000D03*
D13*
%TO.P,Q4,2,E*%
X127575000Y-111800000D03*
%TO.P,Q4,3,C*%
X125575000Y-112750000D03*
%TD*%
D10*
%TO.C,C20*%
%TO.CFtp,C_0603_1608Metric*%
%TO.CVal,10nF*%
%TO.CLbN,Capacitor_SMD_AKL*%
%TO.CMnt,SMD*%
%TO.CRot,90*%
X125500000Y-94500000D03*
D11*
X126229999Y-93020001D02*
X126229999Y-95979999D01*
X124770001Y-95979999D01*
X124770001Y-93020001D01*
X126229999Y-93020001D01*
D12*
%TO.P,C20,1*%
X125500000Y-95275000D03*
D13*
%TO.P,C20,2*%
X125500000Y-93725000D03*
%TD*%
D10*
%TO.C,C12*%
%TO.CFtp,C_0603_1608Metric*%
%TO.CVal,10nF*%
%TO.CLbN,Capacitor_SMD_AKL*%
%TO.CMnt,SMD*%
%TO.CRot,0*%
X143025000Y-110250000D03*
D11*
X144504999Y-109520001D02*
X144504999Y-110979999D01*
X141545001Y-110979999D01*
X141545001Y-109520001D01*
X144504999Y-109520001D01*
D12*
%TO.P,C12,1*%
X142250000Y-110250000D03*
D13*
%TO.P,C12,2*%
X143800000Y-110250000D03*
%TD*%
D10*
%TO.C,R28*%
%TO.CFtp,R_0603_1608Metric*%
%TO.CVal,0R*%
%TO.CLbN,Resistor_SMD_AKL*%
%TO.CMnt,SMD*%
%TO.CRot,0*%
X126250000Y-123250000D03*
D11*
X127729999Y-122520001D02*
X127729999Y-123979999D01*
X124770001Y-123979999D01*
X124770001Y-122520001D01*
X127729999Y-122520001D01*
D12*
%TO.P,R28,1*%
X125425000Y-123250000D03*
D13*
%TO.P,R28,2*%
X127075000Y-123250000D03*
%TD*%
D10*
%TO.C,C19*%
%TO.CFtp,C_0603_1608Metric*%
%TO.CVal,1uF*%
%TO.CLbN,Capacitor_SMD_AKL*%
%TO.CMnt,SMD*%
%TO.CRot,90*%
X123637500Y-94500000D03*
D11*
X124367499Y-93020001D02*
X124367499Y-95979999D01*
X122907501Y-95979999D01*
X122907501Y-93020001D01*
X124367499Y-93020001D01*
D12*
%TO.P,C19,1*%
X123637500Y-95275000D03*
D13*
%TO.P,C19,2*%
X123637500Y-93725000D03*
%TD*%
D10*
%TO.C,C9*%
%TO.CFtp,C_0603_1608Metric*%
%TO.CVal,10uF*%
%TO.CLbN,Capacitor_SMD_AKL*%
%TO.CMnt,SMD*%
%TO.CRot,90*%
X134250000Y-102250000D03*
D11*
X134979999Y-100770001D02*
X134979999Y-103729999D01*
X133520001Y-103729999D01*
X133520001Y-100770001D01*
X134979999Y-100770001D01*
D12*
%TO.P,C9,1*%
X134250000Y-103025000D03*
D13*
%TO.P,C9,2*%
X134250000Y-101475000D03*
%TD*%
D10*
%TO.C,C22*%
%TO.CFtp,CP_Elec_6.3x7.7*%
%TO.CVal,CP_SMD_D6.3mm_H7.7mm - 150uF*%
%TO.CLbN,Capacitor_SMD_AKL*%
%TO.CMnt,SMD*%
%TO.CRot,90*%
X155750000Y-89200000D03*
D11*
X156799999Y-84500001D02*
X156799999Y-85650001D01*
X159299999Y-85650001D01*
X159299999Y-91599999D01*
X158149999Y-92749999D01*
X156799999Y-92749999D01*
X156799999Y-93899999D01*
X154700001Y-93899999D01*
X154700001Y-92749999D01*
X153350001Y-92749999D01*
X152200001Y-91599999D01*
X152200001Y-85650001D01*
X154700001Y-85650001D01*
X154700001Y-84500001D01*
X156799999Y-84500001D01*
D12*
%TO.P,C22,1*%
X155750000Y-91900000D03*
D13*
%TO.P,C22,2*%
X155750000Y-86500000D03*
%TD*%
D10*
%TO.C,U6*%
%TO.CFtp,SOT-223-3_TabPin2*%
%TO.CVal,NCP1117-5.0_SOT223*%
%TO.CLbN,Package_TO_SOT_SMD*%
%TO.CMnt,SMD*%
%TO.CRot,90*%
X148250000Y-89150000D03*
D11*
X151849999Y-84750001D02*
X151849999Y-93549999D01*
X144650001Y-93549999D01*
X144650001Y-84750001D01*
X151849999Y-84750001D01*
D12*
%TO.P,U6,1,GND*%
X145950000Y-92300000D03*
D13*
%TO.P,U6,2,VO*%
X148250000Y-92300000D03*
X148250000Y-86000000D03*
%TO.P,U6,3,VI*%
X150550000Y-92300000D03*
%TD*%
D10*
%TO.C,R22*%
%TO.CFtp,R_0603_1608Metric*%
%TO.CVal,22k*%
%TO.CLbN,Resistor_SMD_AKL*%
%TO.CMnt,SMD*%
%TO.CRot,-90*%
X142420000Y-114325000D03*
D11*
X143149999Y-112845001D02*
X143149999Y-115804999D01*
X141690001Y-115804999D01*
X141690001Y-112845001D01*
X143149999Y-112845001D01*
D12*
%TO.P,R22,1*%
X142420000Y-113500000D03*
D13*
%TO.P,R22,2*%
X142420000Y-115150000D03*
%TD*%
D10*
%TO.C,C24*%
%TO.CFtp,C_0603_1608Metric*%
%TO.CVal,10uF*%
%TO.CLbN,Capacitor_SMD_AKL*%
%TO.CMnt,SMD*%
%TO.CRot,90*%
X160700000Y-115600000D03*
D11*
X161429999Y-114120001D02*
X161429999Y-117079999D01*
X159970001Y-117079999D01*
X159970001Y-114120001D01*
X161429999Y-114120001D01*
D12*
%TO.P,C24,1*%
X160700000Y-116375000D03*
D13*
%TO.P,C24,2*%
X160700000Y-114825000D03*
%TD*%
D10*
%TO.C,R35*%
%TO.CFtp,R_0603_1608Metric*%
%TO.CVal,10k*%
%TO.CLbN,Resistor_SMD_AKL*%
%TO.CMnt,SMD*%
%TO.CRot,180*%
X158175000Y-95400000D03*
D11*
X159654999Y-94670001D02*
X159654999Y-96129999D01*
X156695001Y-96129999D01*
X156695001Y-94670001D01*
X159654999Y-94670001D01*
D12*
%TO.P,R35,1*%
X159000000Y-95400000D03*
D13*
%TO.P,R35,2*%
X157350000Y-95400000D03*
%TD*%
D10*
%TO.C,J7*%
%TO.CFtp,PinHeader_1x04_P2.54mm_Vertical*%
%TO.CVal,Conn_01x04*%
%TO.CLbN,Connector_PinHeader_2.54mm*%
%TO.CMnt,TH*%
%TO.CRot,0*%
X157000000Y-114450000D03*
D11*
X158799999Y-112650001D02*
X158799999Y-123849999D01*
X155200001Y-123849999D01*
X155200001Y-112650001D01*
X158799999Y-112650001D01*
D12*
%TO.P,J7,1,Pin_1*%
X157000000Y-114450000D03*
D13*
%TO.P,J7,2,Pin_2*%
X157000000Y-116990000D03*
%TO.P,J7,3,Pin_3*%
X157000000Y-119530000D03*
%TO.P,J7,4,Pin_4*%
X157000000Y-122070000D03*
%TD*%
D10*
%TO.C,D2*%
%TO.CFtp,D_SOD-123*%
%TO.CVal,1N4148W*%
%TO.CLbN,Diode_SMD_AKL*%
%TO.CMnt,SMD*%
%TO.CRot,0*%
X134170000Y-120150000D03*
D11*
X136519999Y-119000001D02*
X136519999Y-121299999D01*
X131820001Y-121299999D01*
X131820001Y-119000001D01*
X136519999Y-119000001D01*
D12*
%TO.P,D2,1,K*%
X132520000Y-120150000D03*
D13*
%TO.P,D2,2,A*%
X135820000Y-120150000D03*
%TD*%
D10*
%TO.C,C15*%
%TO.CFtp,C_0603_1608Metric*%
%TO.CVal,10nF*%
%TO.CLbN,Capacitor_SMD_AKL*%
%TO.CMnt,SMD*%
%TO.CRot,180*%
X154750000Y-95500000D03*
D11*
X156229999Y-94770001D02*
X156229999Y-96229999D01*
X153270001Y-96229999D01*
X153270001Y-94770001D01*
X156229999Y-94770001D01*
D12*
%TO.P,C15,1*%
X155525000Y-95500000D03*
D13*
%TO.P,C15,2*%
X153975000Y-95500000D03*
%TD*%
D10*
%TO.C,J3*%
%TO.CFtp,TerminalBlock_Phoenix_MPT-0\u002C5-7-2.54_1x07_P2.54mm_Horizontal*%
%TO.CVal,Screw_Terminal_01x07*%
%TO.CLbN,TerminalBlock_Phoenix*%
%TO.CMnt,TH*%
%TO.CRot,90*%
X112750000Y-111910000D03*
D11*
X116349999Y-94660001D02*
X116349999Y-113909999D01*
X109150001Y-113909999D01*
X109150001Y-94660001D01*
X116349999Y-94660001D01*
D12*
%TO.P,J3,1,Pin_1*%
X112750000Y-111910000D03*
D13*
%TO.P,J3,2,Pin_2*%
X112750000Y-109370000D03*
%TO.P,J3,3,Pin_3*%
X112750000Y-106830000D03*
%TO.P,J3,4,Pin_4*%
X112750000Y-104290000D03*
%TO.P,J3,5,Pin_5*%
X112750000Y-101750000D03*
%TO.P,J3,6,Pin_6*%
X112750000Y-99210000D03*
%TO.P,J3,7,Pin_7*%
X112750000Y-96670000D03*
%TD*%
D10*
%TO.C,R29*%
%TO.CFtp,R_0603_1608Metric*%
%TO.CVal,DNP*%
%TO.CLbN,Resistor_SMD_AKL*%
%TO.CMnt,SMD*%
%TO.CRot,180*%
X162325000Y-106250000D03*
D11*
X163804999Y-105520001D02*
X163804999Y-106979999D01*
X160845001Y-106979999D01*
X160845001Y-105520001D01*
X163804999Y-105520001D01*
D12*
%TO.P,R29,1*%
X163150000Y-106250000D03*
D13*
%TO.P,R29,2*%
X161500000Y-106250000D03*
%TD*%
D10*
%TO.C,U2*%
%TO.CFtp,SOIC-16_3.9x9.9mm_P1.27mm*%
%TO.CVal,MC3487DX*%
%TO.CLbN,Package_SO*%
%TO.CMnt,SMD*%
%TO.CRot,0*%
X156025000Y-101845000D03*
D11*
X159724999Y-96645001D02*
X159724999Y-107044999D01*
X152325001Y-107044999D01*
X152325001Y-96645001D01*
X159724999Y-96645001D01*
D12*
%TO.P,U2,1,INPUT*%
X153550000Y-97400000D03*
D13*
%TO.P,U2,2,OUT+*%
X153550000Y-98670000D03*
%TO.P,U2,3,OUT-*%
X153550000Y-99940000D03*
%TO.P,U2,4,ENABLE*%
X153550000Y-101210000D03*
%TO.P,U2,5,OUT-*%
X153550000Y-102480000D03*
%TO.P,U2,6,OUT+*%
X153550000Y-103750000D03*
%TO.P,U2,7,INPUT*%
X153550000Y-105020000D03*
%TO.P,U2,8,GND*%
X153550000Y-106290000D03*
%TO.P,U2,9,INPUT*%
X158500000Y-106290000D03*
%TO.P,U2,10,OUT+*%
X158500000Y-105020000D03*
%TO.P,U2,11,OUT-*%
X158500000Y-103750000D03*
%TO.P,U2,12,ENABLE*%
X158500000Y-102480000D03*
%TO.P,U2,13,OUT-*%
X158500000Y-101210000D03*
%TO.P,U2,14,OUT+*%
X158500000Y-99940000D03*
%TO.P,U2,15,INPUT*%
X158500000Y-98670000D03*
%TO.P,U2,16,VCC*%
X158500000Y-97400000D03*
%TD*%
D10*
%TO.C,R37*%
%TO.CFtp,R_0603_1608Metric*%
%TO.CVal,2K2*%
%TO.CLbN,Resistor_SMD_AKL*%
%TO.CMnt,SMD*%
%TO.CRot,-90*%
X152250000Y-118675000D03*
D11*
X152979999Y-117195001D02*
X152979999Y-120154999D01*
X151520001Y-120154999D01*
X151520001Y-117195001D01*
X152979999Y-117195001D01*
D12*
%TO.P,R37,1*%
X152250000Y-117850000D03*
D13*
%TO.P,R37,2*%
X152250000Y-119500000D03*
%TD*%
D10*
%TO.C,R6*%
%TO.CFtp,R_0603_1608Metric*%
%TO.CVal,4R7*%
%TO.CLbN,Resistor_SMD_AKL*%
%TO.CMnt,SMD*%
%TO.CRot,90*%
X123825000Y-116500000D03*
D11*
X124554999Y-115020001D02*
X124554999Y-117979999D01*
X123095001Y-117979999D01*
X123095001Y-115020001D01*
X124554999Y-115020001D01*
D12*
%TO.P,R6,1*%
X123825000Y-117325000D03*
D13*
%TO.P,R6,2*%
X123825000Y-115675000D03*
%TD*%
D10*
%TO.C,C3*%
%TO.CFtp,C_0603_1608Metric*%
%TO.CVal,DNP*%
%TO.CLbN,Capacitor_SMD_AKL*%
%TO.CMnt,SMD*%
%TO.CRot,-90*%
X127000000Y-101750000D03*
D11*
X127729999Y-100270001D02*
X127729999Y-103229999D01*
X126270001Y-103229999D01*
X126270001Y-100270001D01*
X127729999Y-100270001D01*
D12*
%TO.P,C3,1*%
X127000000Y-100975000D03*
D13*
%TO.P,C3,2*%
X127000000Y-102525000D03*
%TD*%
D10*
%TO.C,R13*%
%TO.CFtp,R_0603_1608Metric*%
%TO.CVal,15K4*%
%TO.CLbN,Resistor_SMD_AKL*%
%TO.CMnt,SMD*%
%TO.CRot,90*%
X139920000Y-120325000D03*
D11*
X140649999Y-118845001D02*
X140649999Y-121804999D01*
X139190001Y-121804999D01*
X139190001Y-118845001D01*
X140649999Y-118845001D01*
D12*
%TO.P,R13,1*%
X139920000Y-121150000D03*
D13*
%TO.P,R13,2*%
X139920000Y-119500000D03*
%TD*%
D10*
%TO.C,R17*%
%TO.CFtp,R_0603_1608Metric*%
%TO.CVal,3R3*%
%TO.CLbN,Resistor_SMD_AKL*%
%TO.CMnt,SMD*%
%TO.CRot,0*%
X124425000Y-100750000D03*
D11*
X125904999Y-100020001D02*
X125904999Y-101479999D01*
X122945001Y-101479999D01*
X122945001Y-100020001D01*
X125904999Y-100020001D01*
D12*
%TO.P,R17,1*%
X123600000Y-100750000D03*
D13*
%TO.P,R17,2*%
X125250000Y-100750000D03*
%TD*%
D10*
%TO.C,R7*%
%TO.CFtp,R_0603_1608Metric*%
%TO.CVal,2K2*%
%TO.CLbN,Resistor_SMD_AKL*%
%TO.CMnt,SMD*%
%TO.CRot,180*%
X130075000Y-107250000D03*
D11*
X131554999Y-106520001D02*
X131554999Y-107979999D01*
X128595001Y-107979999D01*
X128595001Y-106520001D01*
X131554999Y-106520001D01*
D12*
%TO.P,R7,1*%
X130900000Y-107250000D03*
D13*
%TO.P,R7,2*%
X129250000Y-107250000D03*
%TD*%
D10*
%TO.C,C18*%
%TO.CFtp,C_0603_1608Metric*%
%TO.CVal,10nF*%
%TO.CLbN,Capacitor_SMD_AKL*%
%TO.CMnt,SMD*%
%TO.CRot,-90*%
X123637500Y-97804996D03*
D11*
X124367499Y-96324997D02*
X124367499Y-99284995D01*
X122907501Y-99284995D01*
X122907501Y-96324997D01*
X124367499Y-96324997D01*
D12*
%TO.P,C18,1*%
X123637500Y-97029996D03*
D13*
%TO.P,C18,2*%
X123637500Y-98579996D03*
%TD*%
D10*
%TO.C,J1*%
%TO.CFtp,DSUB-15_Female_Horizontal_P2.77x2.84mm_EdgePinOffset7.70mm_Housed_MountingHolesOffset9.12mm*%
%TO.CVal,DA15_Receptacle_MountingHoles*%
%TO.CLbN,Connector_Dsub*%
%TO.CMnt,TH*%
%TO.CRot,-90*%
X119840000Y-114005000D03*
D11*
X122189999Y-84205001D02*
X122189999Y-124454999D01*
X102190001Y-124454999D01*
X102190001Y-84205001D01*
X122189999Y-84205001D01*
D12*
%TO.P,J1,1,1*%
X119840000Y-114005000D03*
D13*
%TO.P,J1,0,PAD*%
X118420000Y-87660000D03*
X118420000Y-120960000D03*
%TO.P,J1,2,2*%
X119840000Y-111235000D03*
%TO.P,J1,3,3*%
X119840000Y-108465000D03*
%TO.P,J1,4,4*%
X119840000Y-105695000D03*
%TO.P,J1,5,5*%
X119840000Y-102925000D03*
%TO.P,J1,6,6*%
X119840000Y-100155000D03*
%TO.P,J1,7,7*%
X119840000Y-97385000D03*
%TO.P,J1,8,8*%
X119840000Y-94615000D03*
%TO.P,J1,9,P9*%
X117000000Y-112620000D03*
%TO.P,J1,10,P10*%
X117000000Y-109850000D03*
%TO.P,J1,11,P111*%
X117000000Y-107080000D03*
%TO.P,J1,12,P12*%
X117000000Y-104310000D03*
%TO.P,J1,13,P13*%
X117000000Y-101540000D03*
%TO.P,J1,14,P14*%
X117000000Y-98770000D03*
%TO.P,J1,15,P15*%
X117000000Y-96000000D03*
%TD*%
D10*
%TO.C,J5*%
%TO.CFtp,PinHeader_1x04_P2.54mm_Vertical*%
%TO.CVal,Conn_01x04*%
%TO.CLbN,Connector_PinHeader_2.54mm*%
%TO.CMnt,TH*%
%TO.CRot,0*%
X164250000Y-114420000D03*
D11*
X166049999Y-112620001D02*
X166049999Y-123819999D01*
X162450001Y-123819999D01*
X162450001Y-112620001D01*
X166049999Y-112620001D01*
D12*
%TO.P,J5,1,Pin_1*%
X164250000Y-114420000D03*
D13*
%TO.P,J5,2,Pin_2*%
X164250000Y-116960000D03*
%TO.P,J5,3,Pin_3*%
X164250000Y-119500000D03*
%TO.P,J5,4,Pin_4*%
X164250000Y-122040000D03*
%TD*%
D10*
%TO.C,D1*%
%TO.CFtp,D_SOD-123*%
%TO.CVal,1N4148W*%
%TO.CLbN,Diode_SMD_AKL*%
%TO.CMnt,SMD*%
%TO.CRot,180*%
X134170000Y-123000000D03*
D11*
X136519999Y-121850001D02*
X136519999Y-124149999D01*
X131820001Y-124149999D01*
X131820001Y-121850001D01*
X136519999Y-121850001D01*
D12*
%TO.P,D1,1,K*%
X135820000Y-123000000D03*
D13*
%TO.P,D1,2,A*%
X132520000Y-123000000D03*
%TD*%
D10*
%TO.C,C17*%
%TO.CFtp,C_0603_1608Metric*%
%TO.CVal,10uF*%
%TO.CLbN,Capacitor_SMD_AKL*%
%TO.CMnt,SMD*%
%TO.CRot,-90*%
X125500000Y-97804996D03*
D11*
X126229999Y-96324997D02*
X126229999Y-99284995D01*
X124770001Y-99284995D01*
X124770001Y-96324997D01*
X126229999Y-96324997D01*
D12*
%TO.P,C17,1*%
X125500000Y-97029996D03*
D13*
%TO.P,C17,2*%
X125500000Y-98579996D03*
%TD*%
D10*
%TO.C,C6*%
%TO.CFtp,C_0603_1608Metric*%
%TO.CVal,10nF*%
%TO.CLbN,Capacitor_SMD_AKL*%
%TO.CMnt,SMD*%
%TO.CRot,180*%
X139000000Y-95250000D03*
D11*
X140479999Y-94520001D02*
X140479999Y-95979999D01*
X137520001Y-95979999D01*
X137520001Y-94520001D01*
X140479999Y-94520001D01*
D12*
%TO.P,C6,1*%
X139775000Y-95250000D03*
D13*
%TO.P,C6,2*%
X138225000Y-95250000D03*
%TD*%
D10*
%TO.C,Q2*%
%TO.CFtp,SOT-23*%
%TO.CVal,MMBT5401*%
%TO.CLbN,Package_TO_SOT_SMD_AKL*%
%TO.CMnt,SMD*%
%TO.CRot,180*%
X126575000Y-109000000D03*
D11*
X128274999Y-107250001D02*
X128274999Y-110749999D01*
X124875001Y-110749999D01*
X124875001Y-107250001D01*
X128274999Y-107250001D01*
D12*
%TO.P,Q2,1,B*%
X127575000Y-109950000D03*
D13*
%TO.P,Q2,2,E*%
X127575000Y-108050000D03*
%TO.P,Q2,3,C*%
X125575000Y-109000000D03*
%TD*%
D10*
%TO.C,U3*%
%TO.CFtp,SO-8_3.9x4.9mm_P1.27mm*%
%TO.CVal,AD8662ARZ*%
%TO.CLbN,Package_SO_AKL*%
%TO.CMnt,SMD*%
%TO.CRot,90*%
X134575000Y-114650000D03*
D11*
X137274999Y-110950001D02*
X137274999Y-118349999D01*
X131875001Y-118349999D01*
X131875001Y-110950001D01*
X137274999Y-110950001D01*
D12*
%TO.P,U3,1*%
X132670000Y-117225000D03*
D13*
%TO.P,U3,8,V+*%
X132670000Y-112075000D03*
%TO.P,U3,7*%
X133940000Y-112075000D03*
%TO.P,U3,6,-*%
X135210000Y-112075000D03*
%TO.P,U3,5,+*%
X136480000Y-112075000D03*
%TO.P,U3,4,V-*%
X136480000Y-117225000D03*
%TO.P,U3,3,+*%
X135210000Y-117225000D03*
%TO.P,U3,2,-*%
X133940000Y-117225000D03*
%TD*%
D10*
%TO.C,R25*%
%TO.CFtp,R_0603_1608Metric*%
%TO.CVal,10k*%
%TO.CLbN,Resistor_SMD_AKL*%
%TO.CMnt,SMD*%
%TO.CRot,0*%
X131675000Y-91300000D03*
D11*
X133154999Y-90570001D02*
X133154999Y-92029999D01*
X130195001Y-92029999D01*
X130195001Y-90570001D01*
X133154999Y-90570001D01*
D12*
%TO.P,R25,1*%
X130850000Y-91300000D03*
D13*
%TO.P,R25,2*%
X132500000Y-91300000D03*
%TD*%
D10*
%TO.C,R15*%
%TO.CFtp,R_0603_1608Metric*%
%TO.CVal,10k*%
%TO.CLbN,Resistor_SMD_AKL*%
%TO.CMnt,SMD*%
%TO.CRot,90*%
X137920000Y-120325000D03*
D11*
X138649999Y-118845001D02*
X138649999Y-121804999D01*
X137190001Y-121804999D01*
X137190001Y-118845001D01*
X138649999Y-118845001D01*
D12*
%TO.P,R15,1*%
X137920000Y-121150000D03*
D13*
%TO.P,R15,2*%
X137920000Y-119500000D03*
%TD*%
D10*
%TO.C,R24*%
%TO.CFtp,R_0603_1608Metric*%
%TO.CVal,10k*%
%TO.CLbN,Resistor_SMD_AKL*%
%TO.CMnt,SMD*%
%TO.CRot,180*%
X135000000Y-91300000D03*
D11*
X136479999Y-90570001D02*
X136479999Y-92029999D01*
X133520001Y-92029999D01*
X133520001Y-90570001D01*
X136479999Y-90570001D01*
D12*
%TO.P,R24,1*%
X135825000Y-91300000D03*
D13*
%TO.P,R24,2*%
X134175000Y-91300000D03*
%TD*%
D10*
%TO.C,R30*%
%TO.CFtp,R_0603_1608Metric*%
%TO.CVal,2K2*%
%TO.CLbN,Resistor_SMD_AKL*%
%TO.CMnt,SMD*%
%TO.CRot,0*%
X166500000Y-106250000D03*
D11*
X167979999Y-105520001D02*
X167979999Y-106979999D01*
X165020001Y-106979999D01*
X165020001Y-105520001D01*
X167979999Y-105520001D01*
D12*
%TO.P,R30,1*%
X165675000Y-106250000D03*
D13*
%TO.P,R30,2*%
X167325000Y-106250000D03*
%TD*%
D10*
%TO.C,R26*%
%TO.CFtp,R_0603_1608Metric*%
%TO.CVal,10k*%
%TO.CLbN,Resistor_SMD_AKL*%
%TO.CMnt,SMD*%
%TO.CRot,180*%
X151000000Y-95500000D03*
D11*
X152479999Y-94770001D02*
X152479999Y-96229999D01*
X149520001Y-96229999D01*
X149520001Y-94770001D01*
X152479999Y-94770001D01*
D12*
%TO.P,R26,1*%
X151825000Y-95500000D03*
D13*
%TO.P,R26,2*%
X150175000Y-95500000D03*
%TD*%
D10*
%TO.C,S1*%
%TO.CFtp,SW_TS-1187A-B-A-B*%
%TO.CVal,TS-1187A-B-A-B*%
%TO.CLbN,TS-1187A-B-A-B*%
%TO.CMnt,SMD*%
%TO.CRot,0*%
X126500000Y-87125000D03*
D11*
X129299999Y-84325001D02*
X129299999Y-84625001D01*
X130249999Y-84625001D01*
X130249999Y-85874999D01*
X129299999Y-85874999D01*
X129299999Y-88375001D01*
X130249999Y-88375001D01*
X130249999Y-89624999D01*
X129299999Y-89624999D01*
X129299999Y-89924999D01*
X123700001Y-89924999D01*
X123700001Y-89624999D01*
X122750001Y-89624999D01*
X122750001Y-88375001D01*
X123700001Y-88375001D01*
X123700001Y-85874999D01*
X122750001Y-85874999D01*
X122750001Y-84625001D01*
X123700001Y-84625001D01*
X123700001Y-84325001D01*
X129299999Y-84325001D01*
D13*
%TO.P,S1,A*%
X123500000Y-85250000D03*
%TO.P,S1,B*%
X129500000Y-85250000D03*
%TO.P,S1,C*%
X123500000Y-89000000D03*
%TO.P,S1,D*%
X129500000Y-89000000D03*
%TD*%
D10*
%TO.C,FB1*%
%TO.CFtp,Fuse_0603_1608Metric*%
%TO.CVal,Ferrite_Bead*%
%TO.CLbN,Fuse*%
%TO.CMnt,SMD*%
%TO.CRot,180*%
X147750000Y-95500000D03*
D11*
X149229999Y-94770001D02*
X149229999Y-96229999D01*
X146270001Y-96229999D01*
X146270001Y-94770001D01*
X149229999Y-94770001D01*
D12*
%TO.P,FB1,1*%
X148537500Y-95500000D03*
D13*
%TO.P,FB1,2*%
X146962500Y-95500000D03*
%TD*%
D10*
%TO.C,R5*%
%TO.CFtp,R_0603_1608Metric*%
%TO.CVal,4R7*%
%TO.CLbN,Resistor_SMD_AKL*%
%TO.CMnt,SMD*%
%TO.CRot,90*%
X123825000Y-120250000D03*
D11*
X124554999Y-118770001D02*
X124554999Y-121729999D01*
X123095001Y-121729999D01*
X123095001Y-118770001D01*
X124554999Y-118770001D01*
D12*
%TO.P,R5,1*%
X123825000Y-121075000D03*
D13*
%TO.P,R5,2*%
X123825000Y-119425000D03*
%TD*%
D10*
%TO.C,D6*%
%TO.CFtp,LED_0603_1608Metric*%
%TO.CVal,LED*%
%TO.CLbN,LED_SMD*%
%TO.CMnt,SMD*%
%TO.CRot,0*%
X172250000Y-109250000D03*
D11*
X173729999Y-108520001D02*
X173729999Y-109979999D01*
X170770001Y-109979999D01*
X170770001Y-108520001D01*
X173729999Y-108520001D01*
D12*
%TO.P,D6,1,K*%
X171462500Y-109250000D03*
D13*
%TO.P,D6,2,A*%
X173037500Y-109250000D03*
%TD*%
D10*
%TO.C,C7*%
%TO.CFtp,C_0603_1608Metric*%
%TO.CVal,10uF*%
%TO.CLbN,Capacitor_SMD_AKL*%
%TO.CMnt,SMD*%
%TO.CRot,-90*%
X145250000Y-96250000D03*
D11*
X145979999Y-94770001D02*
X145979999Y-97729999D01*
X144520001Y-97729999D01*
X144520001Y-94770001D01*
X145979999Y-94770001D01*
D12*
%TO.P,C7,1*%
X145250000Y-95475000D03*
D13*
%TO.P,C7,2*%
X145250000Y-97025000D03*
%TD*%
D10*
%TO.C,R20*%
%TO.CFtp,R_0603_1608Metric*%
%TO.CVal,3R3*%
%TO.CLbN,Resistor_SMD_AKL*%
%TO.CMnt,SMD*%
%TO.CRot,0*%
X124425000Y-106000000D03*
D11*
X125904999Y-105270001D02*
X125904999Y-106729999D01*
X122945001Y-106729999D01*
X122945001Y-105270001D01*
X125904999Y-105270001D01*
D12*
%TO.P,R20,1*%
X123600000Y-106000000D03*
D13*
%TO.P,R20,2*%
X125250000Y-106000000D03*
%TD*%
D10*
%TO.C,Q3*%
%TO.CFtp,SOT-23*%
%TO.CVal,MMBT5401*%
%TO.CLbN,Package_TO_SOT_SMD_AKL*%
%TO.CMnt,SMD*%
%TO.CRot,180*%
X126575000Y-120200000D03*
D11*
X128274999Y-118450001D02*
X128274999Y-121949999D01*
X124875001Y-121949999D01*
X124875001Y-118450001D01*
X128274999Y-118450001D01*
D12*
%TO.P,Q3,1,B*%
X127575000Y-121150000D03*
D13*
%TO.P,Q3,2,E*%
X127575000Y-119250000D03*
%TO.P,Q3,3,C*%
X125575000Y-120200000D03*
%TD*%
D10*
%TO.C,R9*%
%TO.CFtp,R_0603_1608Metric*%
%TO.CVal,3R3*%
%TO.CLbN,Resistor_SMD_AKL*%
%TO.CMnt,SMD*%
%TO.CRot,180*%
X130075000Y-113750000D03*
D11*
X131554999Y-113020001D02*
X131554999Y-114479999D01*
X128595001Y-114479999D01*
X128595001Y-113020001D01*
X131554999Y-113020001D01*
D12*
%TO.P,R9,1*%
X130900000Y-113750000D03*
D13*
%TO.P,R9,2*%
X129250000Y-113750000D03*
%TD*%
D10*
%TO.C,R27*%
%TO.CFtp,R_0603_1608Metric*%
%TO.CVal,10k*%
%TO.CLbN,Resistor_SMD_AKL*%
%TO.CMnt,SMD*%
%TO.CRot,0*%
X128275000Y-91300000D03*
D11*
X129754999Y-90570001D02*
X129754999Y-92029999D01*
X126795001Y-92029999D01*
X126795001Y-90570001D01*
X129754999Y-90570001D01*
D12*
%TO.P,R27,1*%
X127450000Y-91300000D03*
D13*
%TO.P,R27,2*%
X129100000Y-91300000D03*
%TD*%
D10*
%TO.C,C1*%
%TO.CFtp,C_0603_1608Metric*%
%TO.CVal,1uF*%
%TO.CLbN,Capacitor_SMD_AKL*%
%TO.CMnt,SMD*%
%TO.CRot,-90*%
X140420000Y-116800000D03*
D11*
X141149999Y-115320001D02*
X141149999Y-118279999D01*
X139690001Y-118279999D01*
X139690001Y-115320001D01*
X141149999Y-115320001D01*
D12*
%TO.P,C1,1*%
X140420000Y-116025000D03*
D13*
%TO.P,C1,2*%
X140420000Y-117575000D03*
%TD*%
D10*
%TO.C,U5*%
%TO.CFtp,TSSOP-20_4.4x6.5mm_P0.65mm*%
%TO.CVal,STM8S003F3P*%
%TO.CLbN,Package_SO*%
%TO.CMnt,SMD*%
%TO.CRot,0*%
X131000000Y-96075000D03*
D11*
X134849999Y-92575001D02*
X134849999Y-99574999D01*
X127150001Y-99574999D01*
X127150001Y-92575001D01*
X134849999Y-92575001D01*
D12*
%TO.P,U5,1,PD4*%
X128137500Y-93150000D03*
D13*
%TO.P,U5,2,PD5*%
X128137500Y-93800000D03*
%TO.P,U5,3,PD6*%
X128137500Y-94450000D03*
%TO.P,U5,4,NRST*%
X128137500Y-95100000D03*
%TO.P,U5,5,PA1*%
X128137500Y-95750000D03*
%TO.P,U5,6,PA2*%
X128137500Y-96400000D03*
%TO.P,U5,7,VSS*%
X128137500Y-97050000D03*
%TO.P,U5,8,VCAP*%
X128137500Y-97700000D03*
%TO.P,U5,9,VDD*%
X128137500Y-98350000D03*
%TO.P,U5,10,PA3*%
X128137500Y-99000000D03*
%TO.P,U5,11,PB5*%
X133862500Y-99000000D03*
%TO.P,U5,12,PB4*%
X133862500Y-98350000D03*
%TO.P,U5,13,PC3*%
X133862500Y-97700000D03*
%TO.P,U5,14,PC4*%
X133862500Y-97050000D03*
%TO.P,U5,15,PC5*%
X133862500Y-96400000D03*
%TO.P,U5,16,PC6*%
X133862500Y-95750000D03*
%TO.P,U5,17,PC7*%
X133862500Y-95100000D03*
%TO.P,U5,18,PD1*%
X133862500Y-94450000D03*
%TO.P,U5,19,PD2*%
X133862500Y-93800000D03*
%TO.P,U5,20,PD3*%
X133862500Y-93150000D03*
%TD*%
D10*
%TO.C,R1*%
%TO.CFtp,R_0603_1608Metric*%
%TO.CVal,2K2*%
%TO.CLbN,Resistor_SMD_AKL*%
%TO.CMnt,SMD*%
%TO.CRot,180*%
X130075000Y-119500000D03*
D11*
X131554999Y-118770001D02*
X131554999Y-120229999D01*
X128595001Y-120229999D01*
X128595001Y-118770001D01*
X131554999Y-118770001D01*
D12*
%TO.P,R1,1*%
X130900000Y-119500000D03*
D13*
%TO.P,R1,2*%
X129250000Y-119500000D03*
%TD*%
D10*
%TO.C,R16*%
%TO.CFtp,R_0603_1608Metric*%
%TO.CVal,10k*%
%TO.CLbN,Resistor_SMD_AKL*%
%TO.CMnt,SMD*%
%TO.CRot,-90*%
X137920000Y-109000000D03*
D11*
X138649999Y-107520001D02*
X138649999Y-110479999D01*
X137190001Y-110479999D01*
X137190001Y-107520001D01*
X138649999Y-107520001D01*
D12*
%TO.P,R16,1*%
X137920000Y-108175000D03*
D13*
%TO.P,R16,2*%
X137920000Y-109825000D03*
%TD*%
D10*
%TO.C,C4*%
%TO.CFtp,C_0603_1608Metric*%
%TO.CVal,DNP*%
%TO.CLbN,Capacitor_SMD_AKL*%
%TO.CMnt,SMD*%
%TO.CRot,-90*%
X127000000Y-105250000D03*
D11*
X127729999Y-103770001D02*
X127729999Y-106729999D01*
X126270001Y-106729999D01*
X126270001Y-103770001D01*
X127729999Y-103770001D01*
D12*
%TO.P,C4,1*%
X127000000Y-104475000D03*
D13*
%TO.P,C4,2*%
X127000000Y-106025000D03*
%TD*%
D10*
%TO.C,U1*%
%TO.CFtp,QFP50P900X900X160-48N*%
%TO.CVal,AD2S1210WDSTZRL7*%
%TO.CLbN,AD2S1210WDSTZRL7*%
%TO.CMnt,SMD*%
%TO.CRot,0*%
X140750000Y-101500000D03*
D14*
X135797000Y-96547000D02*
X135797000Y-106453000D01*
X145703000Y-106453000D01*
X145703000Y-96547000D01*
X135797000Y-96547000D01*
D12*
%TO.P,U1,1,RES1*%
X136533600Y-98756800D03*
D13*
%TO.P,U1,2,~CS*%
X136533600Y-99239400D03*
%TO.P,U1,3,~RD*%
X136533600Y-99747400D03*
%TO.P,U1,4,~WR/~FSYNC*%
X136533600Y-100255400D03*
%TO.P,U1,5,DGND_2*%
X136533600Y-100738000D03*
%TO.P,U1,6,DVDD*%
X136533600Y-101246000D03*
%TO.P,U1,7,CLKIN*%
X136533600Y-101754000D03*
%TO.P,U1,8,XTALOUT*%
X136533600Y-102262000D03*
%TO.P,U1,9,~SOE*%
X136533600Y-102744600D03*
%TO.P,U1,10,~SAMPLE*%
X136533600Y-103252600D03*
%TO.P,U1,11,DB15/SDO*%
X136533600Y-103760600D03*
%TO.P,U1,12,DB14/SDI*%
X136533600Y-104243200D03*
%TO.P,U1,13,DB13/SCLK*%
X138006800Y-105716400D03*
%TO.P,U1,14,DB12*%
X138489400Y-105716400D03*
%TO.P,U1,15,DB11*%
X138997400Y-105716400D03*
%TO.P,U1,16,DB10*%
X139505400Y-105716400D03*
%TO.P,U1,17,DB9*%
X139988000Y-105716400D03*
%TO.P,U1,18,VDRIVE*%
X140496000Y-105716400D03*
%TO.P,U1,19,DGND*%
X141004000Y-105716400D03*
%TO.P,U1,20,DB8*%
X141512000Y-105716400D03*
%TO.P,U1,21,DB7*%
X141994600Y-105716400D03*
%TO.P,U1,22,DB6*%
X142502600Y-105716400D03*
%TO.P,U1,23,DB5*%
X143010600Y-105716400D03*
%TO.P,U1,24,DB4*%
X143493200Y-105716400D03*
%TO.P,U1,25,DB3*%
X144966400Y-104243200D03*
%TO.P,U1,26,DB2*%
X144966400Y-103760600D03*
%TO.P,U1,27,DB1*%
X144966400Y-103252600D03*
%TO.P,U1,28,DB0*%
X144966400Y-102744600D03*
%TO.P,U1,29,A*%
X144966400Y-102262000D03*
%TO.P,U1,30,B*%
X144966400Y-101754000D03*
%TO.P,U1,31,NM*%
X144966400Y-101246000D03*
%TO.P,U1,32,DIR*%
X144966400Y-100738000D03*
%TO.P,U1,33,~RESET*%
X144966400Y-100255400D03*
%TO.P,U1,34,LOT*%
X144966400Y-99747400D03*
%TO.P,U1,35,DOS*%
X144966400Y-99239400D03*
%TO.P,U1,36,A1*%
X144966400Y-98756800D03*
%TO.P,U1,37,A0*%
X143493200Y-97283600D03*
%TO.P,U1,38,EXC*%
X143010600Y-97283600D03*
%TO.P,U1,39,~EXC*%
X142502600Y-97283600D03*
%TO.P,U1,40,AGND*%
X141994600Y-97283600D03*
%TO.P,U1,41,SIN*%
X141512000Y-97283600D03*
%TO.P,U1,42,SINLO*%
X141004000Y-97283600D03*
%TO.P,U1,43,AVDD*%
X140496000Y-97283600D03*
%TO.P,U1,44,COSLO*%
X139988000Y-97283600D03*
%TO.P,U1,45,COS*%
X139505400Y-97283600D03*
%TO.P,U1,46,REFBYP*%
X138997400Y-97283600D03*
%TO.P,U1,47,REFOUT*%
X138489400Y-97283600D03*
%TO.P,U1,48,RES0*%
X138006800Y-97283600D03*
%TD*%
D10*
%TO.C,C10*%
%TO.CFtp,C_0603_1608Metric*%
%TO.CVal,10nF*%
%TO.CLbN,Capacitor_SMD_AKL*%
%TO.CMnt,SMD*%
%TO.CRot,90*%
X132250000Y-102250000D03*
D11*
X132979999Y-100770001D02*
X132979999Y-103729999D01*
X131520001Y-103729999D01*
X131520001Y-100770001D01*
X132979999Y-100770001D01*
D12*
%TO.P,C10,1*%
X132250000Y-103025000D03*
D13*
%TO.P,C10,2*%
X132250000Y-101475000D03*
%TD*%
D10*
%TO.C,R3*%
%TO.CFtp,R_0603_1608Metric*%
%TO.CVal,3R3*%
%TO.CLbN,Resistor_SMD_AKL*%
%TO.CMnt,SMD*%
%TO.CRot,180*%
X130075000Y-117250000D03*
D11*
X131554999Y-116520001D02*
X131554999Y-117979999D01*
X128595001Y-117979999D01*
X128595001Y-116520001D01*
X131554999Y-116520001D01*
D12*
%TO.P,R3,1*%
X130900000Y-117250000D03*
D13*
%TO.P,R3,2*%
X129250000Y-117250000D03*
%TD*%
D10*
%TO.C,D3*%
%TO.CFtp,D_SOD-123*%
%TO.CVal,1N4148W*%
%TO.CLbN,Diode_SMD_AKL*%
%TO.CMnt,SMD*%
%TO.CRot,180*%
X134225000Y-106150000D03*
D11*
X136574999Y-105000001D02*
X136574999Y-107299999D01*
X131875001Y-107299999D01*
X131875001Y-105000001D01*
X136574999Y-105000001D01*
D12*
%TO.P,D3,1,K*%
X135875000Y-106150000D03*
D13*
%TO.P,D3,2,A*%
X132575000Y-106150000D03*
%TD*%
D10*
%TO.C,R21*%
%TO.CFtp,R_0603_1608Metric*%
%TO.CVal,10k*%
%TO.CLbN,Resistor_SMD_AKL*%
%TO.CMnt,SMD*%
%TO.CRot,90*%
X140420000Y-113100000D03*
D11*
X141149999Y-111620001D02*
X141149999Y-114579999D01*
X139690001Y-114579999D01*
X139690001Y-111620001D01*
X141149999Y-111620001D01*
D12*
%TO.P,R21,1*%
X140420000Y-113925000D03*
D13*
%TO.P,R21,2*%
X140420000Y-112275000D03*
%TD*%
D10*
%TO.C,R11*%
%TO.CFtp,R_0603_1608Metric*%
%TO.CVal,4R7*%
%TO.CLbN,Resistor_SMD_AKL*%
%TO.CMnt,SMD*%
%TO.CRot,-90*%
X123825000Y-108925000D03*
D11*
X124554999Y-107445001D02*
X124554999Y-110404999D01*
X123095001Y-110404999D01*
X123095001Y-107445001D01*
X124554999Y-107445001D01*
D12*
%TO.P,R11,1*%
X123825000Y-108100000D03*
D13*
%TO.P,R11,2*%
X123825000Y-109750000D03*
%TD*%
D10*
%TO.C,J6*%
%TO.CFtp,JST_PH_B5B-PH-K_1x05_P2.00mm_Vertical*%
%TO.CVal,Conn_01x05_Pin*%
%TO.CLbN,Connector_JST*%
%TO.CMnt,TH*%
%TO.CRot,-90*%
X149750000Y-99250000D03*
D11*
X151949999Y-96800001D02*
X151949999Y-109699999D01*
X146450001Y-109699999D01*
X146450001Y-96800001D01*
X151949999Y-96800001D01*
D12*
%TO.P,J6,1,Pin_1*%
X149750000Y-99250000D03*
D13*
%TO.P,J6,2,Pin_2*%
X149750000Y-101250000D03*
%TO.P,J6,3,Pin_3*%
X149750000Y-103250000D03*
%TO.P,J6,4,Pin_4*%
X149750000Y-105250000D03*
%TO.P,J6,5,Pin_5*%
X149750000Y-107250000D03*
%TD*%
D10*
%TO.C,R36*%
%TO.CFtp,R_0603_1608Metric*%
%TO.CVal,2K2*%
%TO.CLbN,Resistor_SMD_AKL*%
%TO.CMnt,SMD*%
%TO.CRot,-90*%
X154250000Y-118675000D03*
D11*
X154979999Y-117195001D02*
X154979999Y-120154999D01*
X153520001Y-120154999D01*
X153520001Y-117195001D01*
X154979999Y-117195001D01*
D12*
%TO.P,R36,1*%
X154250000Y-117850000D03*
D13*
%TO.P,R36,2*%
X154250000Y-119500000D03*
%TD*%
D10*
%TO.C,C23*%
%TO.CFtp,CP_Elec_6.3x7.7*%
%TO.CVal,CP_SMD_D6.3mm_H7.7mm - 150uF*%
%TO.CLbN,Capacitor_SMD_AKL*%
%TO.CMnt,SMD*%
%TO.CRot,90*%
X140750000Y-89450000D03*
D11*
X141799999Y-84750001D02*
X141799999Y-85900001D01*
X144299999Y-85900001D01*
X144299999Y-91849999D01*
X143149999Y-92999999D01*
X141799999Y-92999999D01*
X141799999Y-94149999D01*
X139700001Y-94149999D01*
X139700001Y-92999999D01*
X138350001Y-92999999D01*
X137200001Y-91849999D01*
X137200001Y-85900001D01*
X139700001Y-85900001D01*
X139700001Y-84750001D01*
X141799999Y-84750001D01*
D12*
%TO.P,C23,1*%
X140750000Y-92150000D03*
D13*
%TO.P,C23,2*%
X140750000Y-86750000D03*
%TD*%
D10*
%TO.C,R4*%
%TO.CFtp,R_0603_1608Metric*%
%TO.CVal,2K2*%
%TO.CLbN,Resistor_SMD_AKL*%
%TO.CMnt,SMD*%
%TO.CRot,0*%
X130075000Y-115500000D03*
D11*
X131554999Y-114770001D02*
X131554999Y-116229999D01*
X128595001Y-116229999D01*
X128595001Y-114770001D01*
X131554999Y-114770001D01*
D12*
%TO.P,R4,1*%
X129250000Y-115500000D03*
D13*
%TO.P,R4,2*%
X130900000Y-115500000D03*
%TD*%
D10*
%TO.C,C13*%
%TO.CFtp,C_0603_1608Metric*%
%TO.CVal,100nF*%
%TO.CLbN,Capacitor_SMD_AKL*%
%TO.CMnt,SMD*%
%TO.CRot,-90*%
X138420000Y-113100000D03*
D11*
X139149999Y-111620001D02*
X139149999Y-114579999D01*
X137690001Y-114579999D01*
X137690001Y-111620001D01*
X139149999Y-111620001D01*
D12*
%TO.P,C13,1*%
X138420000Y-112325000D03*
D13*
%TO.P,C13,2*%
X138420000Y-113875000D03*
%TD*%
M02*
